<svg width="90" height="90" viewBox="0 0 90 90" fill="none" xmlns="http://www.w3.org/2000/svg">
<path d="M44.9992 0C20.1471 0 0 20.1475 0 44.9992C0 69.8502 20.1471 90 44.9992 90C69.8514 90 90 69.851 90 44.9992C89.9992 20.1475 69.8514 0 44.9992 0ZM60.3673 28.7849C60.3673 29.2144 60.0195 29.563 59.5892 29.563H48.6344V35.4507H59.5884C60.0187 35.4507 60.3665 35.7993 60.3665 36.2288V47.1817C60.3665 47.612 60.0187 47.9598 59.5884 47.9598H49.4125V71.9961C49.4125 72.4264 49.0647 72.7742 48.6344 72.7742H38.282C37.8517 72.7742 37.5039 72.4264 37.5039 71.9961V47.9606H30.4101C29.9798 47.9606 29.632 47.6128 29.632 47.1825V36.2295C29.632 35.8 29.9798 35.4515 30.4101 35.4515H37.5039V31.0102C37.5039 30.9464 37.5117 30.8849 37.5257 30.8258C37.5319 24.4993 38.885 17.2616 49.2499 17.2289C49.2725 17.2274 49.2966 17.2258 49.32 17.2258H59.5884C60.0187 17.2258 60.3665 17.5744 60.3665 18.0039V28.7849H60.3673Z" fill="black"/>
</svg>
