<svg width="253" height="75" viewBox="0 0 253 75" fill="none" xmlns="http://www.w3.org/2000/svg">
<path fill-rule="evenodd" clip-rule="evenodd" d="M58.8197 8.20013C58.8767 8.24476 58.9325 8.29111 58.9868 8.33912L58.9853 8.3422C59.3402 8.66547 59.6295 9.05726 59.8367 9.49522C60.0439 9.93317 60.1651 10.4087 60.1932 10.8947C60.2212 11.3807 60.1558 11.8676 60.0005 12.3276C59.8451 12.7876 59.6031 13.2117 59.2878 13.5758C58.9727 13.9398 58.5908 14.2365 58.164 14.4491C57.737 14.6618 57.2734 14.786 56.7998 14.8148C56.326 14.8437 55.8514 14.7765 55.403 14.6172C54.9545 14.4578 54.5411 14.2094 54.1863 13.8862L54.1818 13.8892C49.0629 9.6869 42.6994 7.40212 36.1433 7.41255C20.1715 7.41255 7.22865 20.6871 7.22865 37.0626C7.22865 53.438 20.1746 66.7126 36.1433 66.7126C51.0702 66.7126 63.3554 55.112 64.8953 40.2237C65.0027 39.1737 65.056 38.1185 65.0548 37.0626C65.0548 32.9687 61.8184 29.6501 57.8262 29.6501C56.8772 29.6499 55.9373 29.8415 55.0603 30.2138C54.1834 30.5863 53.3867 31.1322 52.7153 31.8205C52.0441 32.5088 51.5116 33.326 51.1483 34.2254C50.7849 35.1249 50.5977 36.089 50.5976 37.0626C50.5976 38.0458 50.2168 38.9886 49.5391 39.6838C48.8615 40.379 47.9424 40.7696 46.984 40.7696C46.0255 40.7696 45.1065 40.379 44.4288 39.6838C43.7512 38.9886 43.3704 38.0458 43.3704 37.0626C43.3704 32.9687 40.1339 29.6501 36.1418 29.6501C35.1926 29.6499 34.2528 29.8415 33.3759 30.2138C32.499 30.5863 31.7021 31.1322 31.0309 31.8205C30.3597 32.5088 29.8272 33.326 29.4639 34.2254C29.1004 35.1249 28.9133 36.089 28.9132 37.0626C28.9132 42.7594 30.4787 48.0794 33.1944 52.598C33.6943 53.4297 33.8541 54.4302 33.6386 55.3819C33.4233 56.3338 32.8501 57.1598 32.0441 57.6804C31.238 58.201 30.2642 58.3738 29.3344 58.1615C28.4047 57.9492 27.5943 57.3689 27.0797 56.5466L27.0766 56.5482C23.5421 50.6964 21.6747 43.9467 21.686 37.0626C21.686 28.8749 28.159 22.2375 36.1433 22.2375C38.1942 22.2353 40.2222 22.6818 42.0917 23.5473C43.9612 24.4127 45.6293 25.6772 46.9848 27.2565C48.3403 25.6771 50.0086 24.4125 51.8785 23.5469C53.7482 22.6815 55.7764 22.235 57.8277 22.2375C65.8121 22.2375 72.285 28.8749 72.285 37.0626C72.285 38.715 72.1797 40.3426 71.9749 41.9379C69.6476 60.1032 54.4934 74.1251 36.1433 74.1251C16.1825 74.1251 0 57.532 0 37.0626C0 16.5933 16.1825 4.65253e-05 36.1433 4.65253e-05C44.3947 -0.0133845 52.4004 2.88152 58.8197 8.20013Z" fill="url(#paint0_linear_246_29)"/>
<path fill-rule="evenodd" clip-rule="evenodd" d="M101.222 27.6765C103.128 27.6765 104.84 28.0656 106.357 28.8439C106.754 29.0478 107.188 29.3427 107.656 29.7272C108.225 30.1458 108.597 30.8298 108.597 31.6019C108.597 32.0496 108.471 32.4877 108.233 32.8628C107.995 33.2381 107.655 33.5342 107.256 33.7152C106.857 33.8961 106.415 33.9542 105.985 33.8822C105.554 33.8103 105.153 33.6115 104.831 33.31C104.522 33.085 104.191 32.8949 103.843 32.7432C103.107 32.4297 102.246 32.2722 101.257 32.2722C99.4564 32.2722 98.0007 32.825 96.8898 33.9292C95.7773 35.0334 95.2218 36.4464 95.2218 38.1729C95.2218 39.8499 95.7563 41.2182 96.8281 42.2806C97.8969 43.3415 99.3043 43.8728 101.045 43.8728C102.554 43.8728 103.829 43.5022 104.87 42.7609C105.275 42.398 105.803 42.1772 106.384 42.1772C106.69 42.0067 107.03 41.9104 107.378 41.8951C107.726 41.8799 108.073 41.9465 108.392 42.0896C108.711 42.2328 108.994 42.4487 109.219 42.7211C109.445 42.9935 109.607 43.315 109.693 43.6613C109.779 44.0076 109.786 44.3693 109.715 44.719C109.644 45.0689 109.496 45.3974 109.283 45.6796C109.069 45.9618 108.796 46.1904 108.483 46.3477C108.17 46.5051 107.827 46.5871 107.478 46.5876C105.738 47.7813 103.629 48.379 101.151 48.379C97.7749 48.379 95.1301 47.3535 93.2183 45.3028C91.3064 43.252 90.3506 40.8506 90.3506 38.1003C90.3506 36.1931 90.8157 34.4388 91.7445 32.8343C92.6748 31.2283 93.9724 29.9681 95.6359 29.0508C97.3008 28.1351 99.1629 27.6765 101.221 27.6765H101.222ZM167.675 27.6765C169.581 27.6765 171.293 28.0656 172.81 28.8439C173.208 29.0478 173.641 29.3427 174.11 29.7272C174.679 30.1458 175.05 30.8298 175.05 31.6019C175.05 32.0496 174.924 32.4877 174.686 32.8628C174.448 33.2381 174.108 33.5342 173.71 33.7152C173.311 33.8961 172.868 33.9542 172.437 33.8822C172.008 33.8103 171.606 33.6115 171.284 33.31C170.975 33.085 170.644 32.8949 170.297 32.7432C169.56 32.4297 168.699 32.2722 167.71 32.2722C165.91 32.2722 164.454 32.825 163.343 33.9292C162.229 35.0334 161.675 36.4464 161.675 38.1729C161.675 39.8499 162.209 41.2182 163.28 42.2806C164.351 43.3415 165.758 43.8728 167.498 43.8728C169.008 43.8728 170.283 43.5022 171.323 42.7609C171.742 42.3837 172.28 42.1761 172.837 42.1772C173.143 42.0067 173.484 41.9104 173.831 41.8951C174.179 41.8799 174.526 41.9465 174.845 42.0896C175.164 42.2328 175.448 42.4487 175.672 42.7211C175.898 42.9935 176.061 43.315 176.146 43.6613C176.232 44.0076 176.24 44.3693 176.169 44.719C176.098 45.0689 175.95 45.3974 175.737 45.6796C175.522 45.9618 175.249 46.1904 174.937 46.3477C174.623 46.5051 174.28 46.5871 173.932 46.5876C172.191 47.7813 170.083 48.379 167.605 48.379C164.229 48.379 161.583 47.3535 159.671 45.3028C157.76 43.252 156.804 40.8506 156.804 38.1003C156.804 36.1931 157.269 34.4388 158.198 32.8343C159.128 31.2283 160.426 29.9681 162.089 29.0508C163.754 28.1351 165.616 27.6765 167.674 27.6765H167.675ZM143.641 27.6765C146.665 27.6765 149.123 28.6679 151.017 30.6538C152.492 32.1981 153.393 34.1254 153.719 36.4402C153.802 36.8105 153.799 37.1951 153.711 37.5642C153.625 37.9333 153.457 38.277 153.221 38.5688C152.984 38.8605 152.684 39.0924 152.346 39.2466C152.008 39.4007 151.64 39.473 151.27 39.4577H138.365C138.589 40.8568 139.185 41.9702 140.157 42.7964C141.127 43.6226 142.365 44.0364 143.872 44.0364C145.247 44.0364 146.475 43.6581 147.558 42.903C147.788 42.6859 148.06 42.521 148.357 42.4189C148.653 42.3168 148.967 42.28 149.278 42.3108C149.59 42.3416 149.891 42.4392 150.163 42.5973C150.435 42.7556 150.671 42.9707 150.857 43.229C151.043 43.4871 151.173 43.7825 151.24 44.0958C151.306 44.4092 151.309 44.7333 151.246 45.0474C151.182 45.3615 151.055 45.6584 150.871 45.9187C150.689 46.179 150.455 46.3969 150.185 46.5583C149.788 46.8485 149.372 47.1033 148.936 47.3211C147.523 48.0269 145.848 48.379 143.908 48.379C140.894 48.379 138.442 47.4061 136.547 45.4572C134.652 43.5083 133.705 41.0684 133.705 38.1374C133.705 35.1321 134.65 32.6382 136.539 30.6538C138.427 28.6679 140.794 27.6765 143.641 27.6765ZM242.063 27.6765C245.086 27.6765 247.545 28.6679 249.44 30.6538C250.913 32.1981 251.814 34.1254 252.14 36.4402C252.221 36.8105 252.219 37.1951 252.132 37.5642C252.046 37.9333 251.878 38.277 251.641 38.5688C251.405 38.8605 251.105 39.0924 250.767 39.2466C250.429 39.4007 250.06 39.473 249.691 39.4577H236.786C237.01 40.8568 237.608 41.9702 238.577 42.7964C239.548 43.6226 240.787 44.0364 242.293 44.0364C243.669 44.0364 244.898 43.6581 245.979 42.903C246.209 42.6859 246.481 42.521 246.778 42.4189C247.074 42.3168 247.388 42.28 247.699 42.3108C248.01 42.3416 248.312 42.4392 248.584 42.5973C248.856 42.7556 249.092 42.9707 249.278 43.229C249.463 43.4871 249.594 43.7825 249.66 44.0958C249.727 44.4092 249.73 44.7333 249.665 45.0474C249.602 45.3615 249.476 45.6584 249.292 45.9187C249.111 46.179 248.876 46.3969 248.606 46.5583C248.209 46.8485 247.793 47.1033 247.356 47.3211C245.945 48.0269 244.271 48.379 242.329 48.379C239.316 48.379 236.864 47.4061 234.968 45.4572C233.075 43.5083 232.126 41.0684 232.126 38.1374C232.126 35.1321 233.072 32.6382 234.96 30.6538C236.848 28.6679 239.215 27.6765 242.063 27.6765ZM191.825 28.2092C192.272 28.2102 192.709 28.3474 193.08 28.6037C193.45 28.8598 193.738 29.2233 193.905 29.6477C194.074 30.0722 194.116 30.5384 194.024 30.9871C193.934 31.4357 193.714 31.8465 193.396 32.1671L188.62 37.6292L194.439 44.0612C194.646 44.2784 194.807 44.5362 194.916 44.8192C195.023 45.1024 195.073 45.4048 195.063 45.7083C195.052 46.0119 194.983 46.3101 194.858 46.5853C194.732 46.8606 194.554 47.1069 194.335 47.3096C194.114 47.5122 193.856 47.6671 193.575 47.7646C193.295 47.8622 192.998 47.9006 192.703 47.8774C192.409 47.8543 192.121 47.7701 191.858 47.6299C191.596 47.4897 191.363 47.2965 191.175 47.0616L184.595 39.745C184.093 39.1745 183.801 38.4429 183.767 37.6756V37.4779L183.776 37.2525C183.845 36.4232 184.213 35.6804 184.77 35.1399L190.069 29.0709C190.481 28.5459 191.116 28.2092 191.825 28.2092ZM115.326 20.582C115.96 20.5824 116.568 20.8411 117.017 21.3012C117.465 21.7613 117.717 22.3853 117.718 23.0358V30.1736C118.659 29.3411 119.605 28.7173 120.558 28.3003C121.472 27.8926 122.457 27.6804 123.453 27.6765C125.359 27.6765 126.965 28.3513 128.27 29.7025C129.388 30.8731 129.947 32.5919 129.947 34.8604V45.4387C129.947 46.0845 129.696 46.704 129.251 47.1607C128.807 47.6175 128.203 47.874 127.573 47.874C126.944 47.874 126.34 47.6175 125.895 47.1607C125.449 46.704 125.199 46.0845 125.199 45.4387V39.24C125.199 36.9606 125.094 35.4163 124.883 34.6072C124.671 33.7995 124.308 33.1956 123.796 32.7972C123.284 32.3988 122.652 32.2011 121.9 32.2011C120.923 32.2011 120.086 32.5317 119.386 33.1956C118.684 33.8597 118.199 34.7647 117.928 35.9104C117.788 36.502 117.718 37.8532 117.718 39.9642V45.4186C117.726 45.7459 117.67 46.0715 117.553 46.3764C117.437 46.6812 117.262 46.9589 117.039 47.1934C116.816 47.4278 116.55 47.6141 116.256 47.7412C115.962 47.8684 115.646 47.9339 115.327 47.9339C115.007 47.9339 114.691 47.8684 114.397 47.7412C114.103 47.6141 113.837 47.4278 113.614 47.1934C113.391 46.9589 113.216 46.6812 113.1 46.3764C112.983 46.0715 112.927 45.7459 112.935 45.4186V23.0358C112.935 21.68 114.004 20.582 115.326 20.582ZM181.34 20.582C182.672 20.582 183.749 21.6862 183.749 23.0483L183.767 37.4779L183.766 37.5319L183.767 37.9644V37.9674L183.749 45.4063C183.749 46.7683 182.672 47.8724 181.34 47.8724C180.01 47.8724 178.933 46.7683 178.933 45.4063V23.0483C178.933 21.6862 180.01 20.582 181.34 20.582ZM221.925 27.6765C223.29 27.6765 224.49 28.0008 225.525 28.654C226.561 29.3056 227.305 30.155 227.759 31.2051C228.21 32.2552 228.437 33.9616 228.437 36.3259V45.3831C228.437 45.7099 228.374 46.0337 228.253 46.3357C228.13 46.6377 227.952 46.9122 227.726 47.1433C227.501 47.3744 227.234 47.5579 226.939 47.683C226.645 47.8081 226.329 47.8724 226.01 47.8724C225.692 47.8724 225.377 47.8081 225.081 47.683C224.787 47.5579 224.52 47.3744 224.294 47.1433C224.07 46.9122 223.89 46.6377 223.769 46.3357C223.647 46.0337 223.583 45.7099 223.583 45.3831V37.8826C223.583 35.651 223.312 34.1393 222.773 33.3501C222.231 32.5595 221.42 32.1641 220.337 32.1641C219.514 32.1641 218.776 32.405 218.123 32.8884C217.469 33.3702 216.985 34.0373 216.667 34.8882C216.349 35.7376 216.19 37.1043 216.19 38.9866V45.3831C216.19 46.0434 215.934 46.6765 215.479 47.1433C215.024 47.6102 214.407 47.8724 213.763 47.8724C213.119 47.8724 212.502 47.6102 212.047 47.1433C211.593 46.6765 211.336 46.0434 211.336 45.3831V38.335C211.336 36.5745 211.209 35.2975 210.957 34.5083C210.704 33.7177 210.324 33.1293 209.819 32.7432C209.313 32.3571 208.702 32.1641 207.982 32.1641C207.198 32.1596 206.434 32.417 205.804 32.8977C205.151 33.3856 204.664 34.0712 204.34 34.9515C204.016 35.8317 203.855 37.2201 203.855 39.1133V45.3924C203.855 46.0504 203.601 46.6814 203.146 47.1466C202.693 47.6119 202.078 47.8732 201.437 47.8732C200.795 47.8732 200.18 47.6119 199.727 47.1466C199.273 46.6814 199.019 46.0504 199.019 45.3924V30.6631C199.019 29.2933 200.103 28.1829 201.435 28.1829H201.65C202.795 28.1829 203.737 29.0786 203.844 30.2276L203.855 30.4437C204.678 29.5172 205.591 28.8222 206.599 28.3636C207.637 27.8987 208.758 27.6646 209.889 27.6765C211.034 27.6605 212.158 27.974 213.137 28.5813C214.102 29.1836 214.879 30.0638 215.467 31.222C216.231 30.0638 217.168 29.1836 218.282 28.5813C219.405 27.9755 220.657 27.6646 221.925 27.6765ZM143.872 31.8567C142.53 31.8567 141.353 32.2428 140.341 33.0149C139.707 33.4967 139.118 34.3477 138.578 35.5662H149.006C148.696 34.4797 148.034 33.5347 147.127 32.8884C146.192 32.2011 145.106 31.8567 143.872 31.8567ZM242.293 31.8567C240.952 31.8567 239.775 32.2428 238.762 33.0149C238.128 33.4967 237.54 34.3477 236.999 35.5662H247.428C247.118 34.4794 246.455 33.5345 245.548 32.8884C244.614 32.2011 243.529 31.8567 242.293 31.8567Z" fill="#154364"/>
<defs>
<linearGradient id="paint0_linear_246_29" x1="72.285" y1="0.0296534" x2="-1.81523" y2="72.2325" gradientUnits="userSpaceOnUse">
<stop stop-color="#00D2FB"/>
<stop offset="1" stop-color="#0096FF"/>
</linearGradient>
</defs>
</svg>
