<svg width="222" height="91" viewBox="0 0 222 91" fill="none" xmlns="http://www.w3.org/2000/svg">
<path d="M24.5138 78.7135C24.5138 87.3404 19.611 90.9675 13.0413 90.9675C7.45222 90.9675 3.13776 88.5171 1.76499 84.7915L5.49108 83.125C6.47164 85.0859 8.923 87.0462 12.9433 87.0462C17.8461 87.0462 20.4935 84.2035 20.4935 79.4979V77.9292C18.8265 79.8901 17.0616 81.1646 12.7472 81.1646C5.09886 81.1646 0 76.1646 0 67.9298C0 59.6949 5.6872 54.6956 12.7472 54.6956C16.5713 54.6956 19.2188 56.068 20.3954 57.5382V55.2836H24.5138V78.7135ZM20.4935 72.3412V62.0481C19.317 60.0872 16.8655 58.4205 13.4335 58.4205C8.53078 58.4205 4.41249 61.7538 4.41249 67.9298C4.41249 73.7141 7.94247 77.2432 13.4335 77.2432C17.0616 77.2432 19.611 74.8901 20.4935 72.3412Z" fill="black"/>
<path d="M52.0672 75.7725C49.6156 79.3021 45.9877 81.0667 41.8694 81.0667C33.7309 81.0667 28.2397 75.8709 28.2397 67.832C28.2397 60.2835 32.7503 54.4993 41.183 54.4993C47.9487 54.4993 52.9497 59.0091 52.9497 66.0673C52.9497 66.9496 52.9497 68.0282 52.7534 69.1064H32.6523C32.8483 74.3021 36.7705 77.1454 41.9674 77.1454C45.1052 77.1454 47.8507 75.4787 49.4197 73.224L52.0672 75.7725ZM32.6523 65.4793H48.7331C48.5373 60.9695 45.5955 58.3226 40.9869 58.3226C36.1822 58.3226 33.2406 61.3617 32.6523 65.4793Z" fill="black"/>
<path d="M56.5778 55.1857H60.6965V58.5191C62.3635 55.9701 65.795 54.5977 69.4234 54.5977C76.0909 54.5977 79.7189 58.029 79.7189 66.1653V80.6745H75.6006V66.6555C75.6006 60.9697 73.1492 58.5191 68.1487 58.5191C65.0109 58.5191 61.9712 60.5775 60.5981 63.7149V80.7725H56.48L56.5778 55.1857Z" fill="black"/>
<path d="M106.88 75.7725C104.429 79.3021 100.801 81.0667 96.6827 81.0667C88.544 81.0667 83.0527 75.8709 83.0527 67.832C83.0527 60.2835 87.5636 54.4993 95.9961 54.4993C102.762 54.4993 107.763 59.0091 107.763 66.0673C107.763 66.9496 107.763 68.0282 107.567 69.1064H87.4651C87.6614 74.3021 91.5836 77.1454 96.7806 77.1454C99.9182 77.1454 102.664 75.4787 104.233 73.224L106.88 75.7725ZM87.4651 65.4793H103.546C103.35 60.9695 100.409 58.3226 95.7997 58.3226C90.995 58.3226 88.0537 61.3617 87.4651 65.4793Z" fill="black"/>
<path d="M108.449 55.1859H113.744V48.6178H117.862V55.1859H126.688V59.1072H117.862V70.3811C117.862 75.4789 119.235 77.1455 122.275 77.1455C124.04 77.1455 125.511 76.3611 126.884 75.2826L128.746 78.3216C127.178 80.0862 124.726 81.0669 121.491 81.0669C116.49 81.0669 113.646 77.7336 113.646 71.4597V59.1072H108.351L108.449 55.1859Z" fill="black"/>
<path d="M133.159 44.5002C134.532 44.5002 135.708 45.5785 135.708 46.951C135.708 48.4214 134.532 49.4999 133.159 49.4999C131.688 49.4999 130.511 48.4214 130.511 46.951C130.511 45.4806 131.688 44.5002 133.159 44.5002Z" fill="white"/>
<path d="M135.12 55.1857H131.002V80.6745H135.12V55.1857Z" fill="black"/>
<path d="M162.87 75.3807C160.909 79.1058 156.496 81.0667 152.377 81.0667C144.239 81.0667 138.748 75.8709 138.748 67.832C138.748 60.2835 144.141 54.4993 152.182 54.4993C156.79 54.4993 160.81 56.5581 162.576 59.6951L159.437 61.8518C157.673 59.4013 155.516 58.3226 152.377 58.3226C147.181 58.3226 143.259 62.244 143.259 67.734C143.259 73.322 147.181 77.1454 152.966 77.1454C156.006 77.1454 158.556 75.5767 160.125 73.224L162.87 75.3807Z" fill="black"/>
<path d="M165.419 61.8518C165.419 57.3424 169.832 54.4993 176.009 54.4993C180.422 54.4993 183.853 56.4602 185.521 58.9111L182.579 61.656C181.206 59.7935 178.559 58.4206 175.225 58.4206C172.578 58.4206 169.733 59.4013 169.733 61.656C169.733 67.0476 185.912 63.6164 185.912 73.6158C185.912 78.8114 181.598 81.0667 175.715 81.0667C170.42 81.0667 166.007 78.6156 164.145 74.9885L167.477 72.6356C168.949 75.3807 172.479 77.1454 176.4 77.1454C179.343 77.1454 181.598 76.263 181.598 73.6158C181.696 67.636 165.419 71.2631 165.419 61.8518Z" fill="black"/>
<path d="M194.345 59.5967L192.875 58.9102C191.895 58.4202 191.503 57.342 191.895 56.3613L205.131 27.6378L194.15 42.9309C193.66 43.6172 192.678 43.9113 191.895 43.6172L189.64 42.735C188.855 42.4409 188.364 41.6566 188.364 40.7742C188.855 32.0493 188.168 12.5407 179.932 7.05083C176.402 4.69804 171.499 5.09018 165.322 8.22723L100.605 41.3624C91.388 45.97 84.426 46.3619 79.8178 42.5389C72.9538 36.7549 73.7383 23.0303 75.5032 13.0309L49.9109 43.029C49.3221 43.7152 48.3417 43.9113 47.5572 43.5192L45.4982 42.4409C44.7138 42.0487 44.3215 41.0683 44.5176 40.1861L51.9696 14.1092L27.26 43.029C26.6715 43.7152 25.6911 43.9113 24.9067 43.5192L22.8475 42.4409C22.063 42.0487 21.6707 41.0683 21.8669 40.1861L32.2608 3.71771C32.555 2.63935 33.6335 2.05115 34.7121 2.34525L36.281 2.83542C37.3596 3.12952 37.9479 4.20789 37.6538 5.28627L30.2996 30.9709L55.0094 2.05115C55.598 1.36492 56.5784 1.16886 57.3629 1.561L59.4222 2.63935C60.2063 3.03148 60.5985 4.01183 60.4026 4.89413L52.9505 30.9709L77.6604 2.05115C78.2487 1.36492 79.229 1.16886 80.1116 1.561L82.1708 2.63935C82.9554 3.03148 83.3477 4.01183 83.1512 4.89413C80.1116 15.8739 77.7584 33.5198 83.5435 38.3234C86.9754 41.1664 93.4472 38.9116 98.2518 36.4608L162.871 3.32559C171.009 -0.791807 177.775 -1.08591 183.168 2.44329C191.993 8.3253 193.855 23.6184 194.15 33.5198L216.506 2.34525C217.094 1.561 218.173 1.26689 219.056 1.75706L220.82 2.73739C221.703 3.22756 221.997 4.30592 221.606 5.1882L197.091 58.5182C196.503 59.5967 195.327 60.0868 194.345 59.5967Z" fill="#72BF44"/>
</svg>
